<svg id="Layer_1" data-name="Layer 1" xmlns="http://www.w3.org/2000/svg" viewBox="0 0 24 38.4"><defs><style>.cls-1{fill:none;stroke:#000;stroke-miterlimit:10;}.cls-1,.cls-2{isolation:isolate;}</style></defs><title>Group 2</title><circle id="Oval-5" class="cls-1" cx="12.04" cy="17.71" r="9.99"/><g class="cls-2"><g class="cls-2"><path d="M12.44,10.51c2.35,0,4,1.5,4,3.49a3.79,3.79,0,0,1-2.06,3.32c-1.27.82-1.63,1.38-1.63,2.46v.73h-1.3v-.92c0-1.28.55-2.1,1.92-3s1.7-1.49,1.7-2.54a2.45,2.45,0,0,0-2.67-2.39,2.6,2.6,0,0,0-2.77,2.51H8.36A3.79,3.79,0,0,1,12.44,10.51ZM11.21,23.88a.91.91,0,1,1,.9.91A.9.9,0,0,1,11.21,23.88Z"/></g></g></svg>