<svg id="Layer_1" data-name="Layer 1" xmlns="http://www.w3.org/2000/svg" viewBox="0 0 38.61 38.26"><defs><style>.cls-1{stroke:#000;stroke-miterlimit:10;stroke-width:0.25px;}</style></defs><title>Group 2</title><path class="cls-1" d="M3,13.94a.17.17,0,0,1-.16-.18.19.19,0,0,1,.08-.16L8.85,9.88a.15.15,0,0,1,.23.06.2.2,0,0,1-.06.25L3.1,13.92a.22.22,0,0,1-.11,0"/><path class="cls-1" d="M3.07,21.33a.17.17,0,0,1-.16-.18A.19.19,0,0,1,3,21l11.65-7.3a.16.16,0,0,1,.22.07.18.18,0,0,1-.06.24L3.17,21.31a.18.18,0,0,1-.1,0"/><path class="cls-1" d="M14.88,13.94a.12.12,0,0,1-.08,0l-6-3.73a.2.2,0,0,1-.06-.25A.16.16,0,0,1,9,9.88L15,13.6a.2.2,0,0,1,.06.25.13.13,0,0,1-.14.09"/><path class="cls-1" d="M14.66,21.23a.12.12,0,0,1-.08,0L3,14A.19.19,0,0,1,3,13.75a.16.16,0,0,1,.22-.07l11.55,7.23a.18.18,0,0,1,.06.24.17.17,0,0,1-.14.08"/><path class="cls-1" d="M8.94,25.11a.15.15,0,0,1-.09,0L2.91,21.37a.2.2,0,0,1-.06-.25.16.16,0,0,1,.23-.07L9,24.78a.18.18,0,0,1,.06.24.16.16,0,0,1-.14.09"/><path class="cls-1" d="M9,25.11a.17.17,0,0,1-.17-.18.19.19,0,0,1,.08-.15l6-3.73a.16.16,0,0,1,.22.07.19.19,0,0,1-.06.25L9,25.09l-.08,0"/><g id="SVGID_1_-link" data-name="SVGID 1 -link"><polygon id="SVGID" class="cls-1" points="2.83 13.7 3.16 13.7 3.16 21.2 2.83 21.2 2.83 13.7"/></g><path class="cls-1" d="M3,21.2A.17.17,0,0,1,2.83,21V13.87A.17.17,0,0,1,3,13.7a.18.18,0,0,1,.17.17h0V21c0,.11-.06.17-.17.17"/><g id="SVGID_3_-link" data-name="SVGID 3 -link"><polygon id="SVGID-2" data-name="SVGID" class="cls-1" points="14.71 13.8 15.04 13.8 15.04 21.39 14.71 21.39 14.71 13.8"/></g><path class="cls-1" d="M14.88,21.39a.17.17,0,0,1-.17-.18V14a.16.16,0,0,1,.17-.17A.16.16,0,0,1,15,14h0v7.24a.16.16,0,0,1-.16.18"/><g id="SVGID_5_-link" data-name="SVGID 5 -link"><polygon id="SVGID-3" data-name="SVGID" class="cls-1" points="8.77 10.04 9.1 10.04 9.1 24.93 8.77 24.93 8.77 10.04"/></g><path class="cls-1" d="M8.94,24.93a.17.17,0,0,1-.17-.18V10.22A.17.17,0,0,1,8.94,10a.17.17,0,0,1,.16.18V24.73a.16.16,0,0,1-.16.2"/><path d="M24,20H19l-.89,2.38H16.75l4-10.75h1.54l4,10.75H24.93Zm-4.67-1.2h4.3l-2.13-6Z"/><path d="M30.8,18.09h-2v4.26H27.61V11.6h4a3,3,0,0,1,3.11,3.24A2.89,2.89,0,0,1,32.14,18l2.68,4.38H33.37Zm.63-5.28h-2.6v4.1h2.6a1.93,1.93,0,0,0,2-2.07A1.87,1.87,0,0,0,31.43,12.81Z"/></svg>