<?xml version="1.0" encoding="UTF-8"?>
<svg width="60px" height="60px" viewBox="0 0 60 60" version="1.1" xmlns="http://www.w3.org/2000/svg" xmlns:xlink="http://www.w3.org/1999/xlink">
    <g id="Action_Button" stroke="none" stroke-width="1" fill="none" fill-rule="evenodd">
        <g id="Group">
            <path d="M41.054,31.2812 L31.477,31.2812 L31.477,40.8582 C31.477,41.6862 30.805,42.3582 29.977,42.3582 C29.148,42.3582 28.477,41.6862 28.477,40.8582 L28.477,31.2812 L18.9,31.2812 C18.071,31.2812 17.4,30.6102 17.4,29.7812 C17.4,28.9522 18.071,28.2812 18.9,28.2812 L28.477,28.2812 L28.477,18.7042 C28.477,17.8752 29.148,17.2042 29.977,17.2042 C30.805,17.2042 31.477,17.8752 31.477,18.7042 L31.477,28.2812 L41.054,28.2812 C41.882,28.2812 42.554,28.9522 42.554,29.7812 C42.554,30.6102 41.882,31.2812 41.054,31.2812 M30,0.0002 C13.431,0.0002 0,13.4312 0,30.0002 C0,46.5692 13.431,60.0002 30,60.0002 C46.569,60.0002 60,46.5692 60,30.0002 C60,13.4312 46.569,0.0002 30,0.0002" id="Fill-1" fill="#FFFFFF"></path>
        </g>
    </g>
</svg>