<?xml version="1.0" encoding="UTF-8" standalone="no"?>
<svg width="31px" height="18px" viewBox="0 0 31 18" version="1.1" xmlns="http://www.w3.org/2000/svg" xmlns:xlink="http://www.w3.org/1999/xlink">
    <g id="3D-Editor" stroke="none" stroke-width="1" fill-rule="evenodd">
        <g id="Toolbar-UI" transform="translate(-207.000000, -257.000000)">
            <g id="Toolbar" transform="translate(193.000000, 140.000000)">
                <g id="Group-24" transform="translate(14.000000, 117.000000)">
                    <path d="M22.6536,14.4205568 C22.8758,14.7501818 23.2348,14.7564205 23.5182,14.889375 C23.9058,15.0713182 24.3222,15.1885227 24.7237,15.3407045 C25.4103,15.6008864 25.7957,16.3252841 25.5998,16.9771705 C25.3914,17.6705795 24.614,18.1312159 23.9158,17.8831023 C22.6546,17.4348409 21.4136,16.9269545 20.1662,16.4385 C19.1905,16.0564091 18.2187,15.6641932 17.2438,15.2798523 C15.9393,14.7653182 15.7064,13.5610568 16.7601,12.6259773 C18.5097,11.073375 20.2801,9.54521591 22.0416,8.00652273 C22.3064,7.77518182 22.5823,7.59538636 22.9571,7.5915 C23.572,7.58515909 24.0103,7.812 24.2299,8.30045455 C24.4462,8.78134091 24.3362,9.47157955 23.9349,9.85448864 C23.3482,10.4142273 22.736,10.94625 22.1446,11.4810341 C22.1851,11.6245227 22.2756,11.6397614 22.3572,11.6155227 C24.0066,11.125125 25.6265,10.5634432 27.0395,9.52107955 C27.2061,9.39814773 27.3678,9.26478409 27.5156,9.11904545 C28.6636,7.98657955 28.6211,6.91077273 27.4008,5.86431818 C26.0415,4.69871591 24.4324,4.066875 22.7507,3.60695455 C20.7206,3.05181818 18.6547,2.78918182 16.5477,2.73753409 C14.3437,2.68353409 12.1571,2.770875 9.9961,3.20256818 C7.7656,3.64806818 5.5835,4.26528409 3.7695,5.769 C2.0986,7.15418182 2.51,8.38452273 3.9954,9.52220455 C4.8806,10.2002727 5.8913,10.6358523 6.9208,11.0331818 C7.5043,11.2583864 7.9208,11.93175 7.8638,12.4713409 C7.8033,13.044375 7.2378,13.5889773 6.6046,13.6938068 C6.4826,13.7140568 6.3712,13.7161023 6.2517,13.6752955 C4.6103,13.1153523 3.056,12.3757159 1.7677,11.1728864 C-0.6871,8.88085227 -0.569,5.92895455 2.0212,3.76046591 C3.7174,2.34040909 5.702,1.54759091 7.7875,0.989897727 C10.9184,0.152795455 14.1155,-0.119659091 17.3339,0.075375 C20.6164,0.274397727 23.8435,0.811534091 26.831,2.34542045 C27.96,2.925 29.0197,3.61738636 29.8256,4.624875 C31.5832,6.82210227 31.2743,9.51821591 29.069,11.4278523 C27.3519,12.9146932 25.3093,13.7064886 23.167,14.2776818 C23.0051,14.3208409 22.8441,14.3674773 22.6536,14.4205568" id="Fill-23"></path>
                </g>
            </g>
        </g>
    </g>
</svg>