<?xml version="1.0" encoding="UTF-8"?>
<svg xmlns="http://www.w3.org/2000/svg" viewBox="0 0 26.458333 26.458334" x="0px" y="0px"><path d="m2.1335937 273.45267c-.64765-.0204-.75732.91777-.12247 1.04747l1.9786.4346.50846 2.41999c.00026.003.00079.003.001.005l2.52169 11.41994c.0536.24241.26848.41497.51673.41497h14.2816103c.71612.0106.71612-1.06901 0-1.05832h-13.8563403l-.48676-2.20501h15.0639503c.24824.00003.46313-.17252.51674-.41493l1.80135-8.15712c.073-.33032-.17847-.64338-.51675-.64338-6.2989.00016-12.59779 0-18.8965903-.003l-.48987-2.33113c-.0428-.20383-.20115-.36364-.4046-.40822l-2.31189-.50746c-.0344-.008-.0696-.013-.10489-.014zm3.54017 4.3191c6.0029803.003 12.0059803.003 18.0088403.003l-1.56778 7.09876h-14.8727603zm5.2495503 12.54029c-1.0354203 0-1.8845403.85272-1.8845603 1.88876-.00001 1.036.84912 1.88875 1.8845603 1.88875 1.03542 0 1.88455-.85275 1.88454-1.88875-.00001-1.03604-.84913-1.88876-1.88454-1.88876zm7.58985 0c-1.03542 0-1.88454.85272-1.88455 1.88876-.00001 1.036.84911 1.88875 1.88455 1.88875 1.03542 0 1.88455-.85275 1.88454-1.88875-.00001-1.03604-.84913-1.88876-1.88454-1.88876z" transform="translate(0 -270.54165)"></path></svg>