<?xml version="1.0" encoding="UTF-8"?>
<svg width="20px" height="20px" viewBox="0 0 20 20" version="1.1" xmlns="http://www.w3.org/2000/svg" xmlns:xlink="http://www.w3.org/1999/xlink">
    <g id="Close" stroke="none" stroke-width="1" fill="none" fill-rule="evenodd">
        <path d="M10.0027331,20.0033211 C15.5188642,20.0018902 20.0004525,15.5224483 20.0033143,10.0048862 C20.0061761,4.48947053 15.5310269,0.00716679862 10.010603,1.22834885e-05 C4.48731735,-0.00857313467 -0.00571814975,4.48446237 5.46235513e-06,10.0084635 C0.00572907446,15.5274565 4.48588645,20.0040366 10.0027331,20.0033211" id="Fill-4" fill="#FFFFFF"></path>
        <path d="M10.822662,9.99951494 L14.8292588,5.99291812 C15.056267,5.76590997 15.056267,5.39726426 14.8292588,5.17025611 C14.6022507,4.94324796 14.2329582,4.94324796 14.0065968,5.17025611 L10,9.17749968 L5.99275644,5.17025611 C5.76704178,4.94389471 5.39710257,4.94324796 5.17074117,5.17025611 C4.94308628,5.39726426 4.94308628,5.76590997 5.17074117,5.99291812 L9.17669124,9.99951494 L5.17074117,14.0067585 C5.06014746,14.1160587 5,14.2622235 5,14.4180895 C5,14.5733088 5.06014746,14.7194735 5.17074117,14.8294205 C5.38998836,15.0486677 5.77221575,15.0486677 5.99275644,14.8294205 L10,10.8221769 L14.0065968,14.8294205 C14.2264908,15.0486677 14.6087181,15.0486677 14.8292588,14.8287738 C14.9392058,14.7194735 15,14.5733088 15,14.4180895 C15,14.2622235 14.9392058,14.1160587 14.8292588,14.0067585 L10.822662,9.99951494 Z" id="Fill-6" fill="#CACACA"></path>
    </g>
</svg>