<?xml version="1.0" encoding="UTF-8" standalone="no"?>
<svg width="28px" height="28px" viewBox="0 0 28 28" version="1.1" xmlns="http://www.w3.org/2000/svg" xmlns:xlink="http://www.w3.org/1999/xlink">
    <defs>
        <polygon id="path-1" points="27.4697143 8.14885714 27.4697143 15.9657143 0 15.9657143 0 8.14885714 0 0.332 27.4697143 0.332 27.4697143 8.14885714"></polygon>
    </defs>
    <g id="3D-Editor" stroke="none" stroke-width="1" fill-rule="evenodd">
        <g id="Toolbar-UI" transform="translate(-208.000000, -301.000000)">
            <g id="Toolbar" transform="translate(193.000000, 140.000000)">
                <g id="translate-icon" transform="translate(15.000000, 161.000000)">
                    <g id="Group-5" transform="translate(0.000000, 12.000000)">

                        <g id="Clip-2"></g>
                        <path d="M2.85714286,13.1428571 L12.8102857,13.1428571 L12.8102857,3.18971429 L2.85714286,3.18971429 L2.85714286,13.1428571 Z M0,16 L15.6674286,16 L15.6674286,0.332 L0,0.332 L0,16 Z" id="Fill-1"></path>
                        <polyline id="Fill-3" points="25.7554286 14.2702857 24.6125714 14.2702857 24.6125714 15.9845714 27.4697143 15.9845714 27.4697143 13.1274286 25.7554286 13.1274286 25.7554286 14.2702857"></polyline>
                        <polygon id="Fill-4" points="18.2514286 15.9657143 21.9622857 15.9657143 21.9622857 14.2702857 18.2514286 14.2702857"></polygon>
                    </g>
                    <polygon id="Fill-6" points="0.0205714286 9.75371429 1.73485714 9.75371429 1.73485714 6.04285714 0.0205714286 6.04285714"></polygon>
                    <polyline id="Fill-7" points="1.73485714 2.24914286 2.87771429 2.24914286 2.87771429 0.534857143 0.0205714286 0.534857143 0.0205714286 3.392 1.73485714 3.392 1.73485714 2.24914286"></polyline>
                    <polygon id="Fill-8" points="18.2514286 2.24914286 21.9622857 2.24914286 21.9622857 0.534857143 18.2514286 0.534857143"></polygon>
                    <polygon id="Fill-9" points="5.528 2.24914286 9.23885714 2.24914286 9.23885714 0.534857143 5.528 0.534857143"></polygon>
                    <polygon id="Fill-10" points="11.8897143 2.24914286 15.6005714 2.24914286 15.6005714 0.534857143 11.8897143 0.534857143"></polygon>
                    <polyline id="Fill-11" points="24.6125714 0.534857143 24.6125714 2.24914286 25.7554286 2.24914286 25.7554286 3.392 27.4697143 3.392 27.4697143 0.534857143 24.6125714 0.534857143"></polyline>
                    <polygon id="Fill-12" points="25.7554286 9.75371429 27.4697143 9.75371429 27.4697143 6.04285714 25.7554286 6.04285714"></polygon>
                    <polygon id="Fill-13" points="25.7554286 16.1148571 27.4697143 16.1148571 27.4697143 12.404 25.7554286 12.404"></polygon>
                    <polygon id="Fill-14" points="25.7554286 22.4765714 27.4697143 22.4765714 27.4697143 18.7657143 25.7554286 18.7657143"></polygon>
                    <path d="M23.9057143,5.81771429 C23.904,5.19314286 23.544,4.83428571 22.9188571,4.83314286 L19.9405714,4.83257143 C19.5514286,4.83257143 19.2577143,5.00114286 19.0948571,5.32171429 C18.9377143,5.62857143 18.9542857,5.944 19.144,6.23485714 C19.3188571,6.50285714 19.5868571,6.63828571 19.9405714,6.63885714 L20.8211429,6.63942857 L16.7262857,10.7354286 C16.3685714,11.0942857 16.3022857,11.5125714 16.5428571,11.9125714 C16.6668571,12.1188571 16.8788571,12.2668571 17.124,12.3177143 C17.3668571,12.368 17.6177143,12.3171429 17.8114286,12.1777143 C17.8851429,12.1257143 17.952,12.0628571 18.0154286,11.9994286 L22.1005714,7.91657143 L22.1,8.8 C22.1,9.176 22.2531429,9.45314286 22.5571429,9.624 C22.8371429,9.78285714 23.1691429,9.78571429 23.4462857,9.63257143 C23.5194286,9.592 23.5851429,9.54228571 23.6428571,9.48514286 C23.796,9.332 23.8874286,9.12628571 23.8971429,8.90114286 C23.9125714,8.57542857 23.9102857,8.24628571 23.9074286,7.92742857 L23.9057143,7.54342857 C23.9062857,6.968 23.9074286,6.39314286 23.9057143,5.81771429" id="Fill-15"></path>
                </g>
            </g>
        </g>
    </g>
</svg>