<svg id="Layer_1" data-name="Layer 1" xmlns="http://www.w3.org/2000/svg" viewBox="0 0 25 25">
  <polygon stroke='none' points="19.63 19.63 14.17 19.63 14.17 20.63 20.63 20.63 20.63 14.23 19.63 14.23 19.63 19.63" />
  <polygon stroke='none' points="20.63 4.37 14.17 4.37 14.17 5.37 19.63 5.37 19.63 10.88 20.63 10.88 20.63 4.37" />
  <polygon stroke='none' points="5.37 5.37 10.82 5.37 10.82 4.37 4.37 4.37 4.37 10.88 5.37 10.88 5.37 5.37" />
  <polygon stroke='none' points="4.37 14.23 4.37 20.63 10.82 20.63 10.82 19.63 5.37 19.63 5.37 14.23 4.37 14.23" />
  <line fill='none' stroke-miterlimit='10' x1="20.16" y1="4.93" x2="4.83" y2="20.2" />
  <line fill='none' stroke-miterlimit='10' x1="4.78" y1="4.78" x2="20.22" y2="20.2" />
</svg>