<?xml version="1.0" encoding="UTF-8" standalone="no"?>
<svg
   xmlns:dc="http://purl.org/dc/elements/1.1/"
   xmlns:cc="http://creativecommons.org/ns#"
   xmlns:rdf="http://www.w3.org/1999/02/22-rdf-syntax-ns#"
   xmlns:svg="http://www.w3.org/2000/svg"
   xmlns="http://www.w3.org/2000/svg"
   version="1.1"
   viewBox="0 0 44 44">
  <g
     style="fill:#ffffff;fill-rule:nonzero"
     transform="translate(-1488,-956)">
    <g
       transform="translate(1488,959)">
      <path
         d="m 44,35.165286 -4.258711,-4.601937 -0.119778,1.78723 -4.638089,-2.144947 V 15.099198 c 0,-0.0068 -0.002,-0.01357 -0.0024,-0.02035 -4.89e-4,-0.01628 -0.0015,-0.03211 -0.0034,-0.04839 -0.002,-0.01628 -0.0044,-0.03256 -0.0073,-0.04884 -0.0029,-0.01492 -0.0054,-0.02939 -0.0093,-0.04387 -0.0034,-0.01402 -0.0078,-0.02713 -0.01222,-0.04115 -0.0049,-0.01538 -0.01076,-0.0303 -0.01711,-0.04567 -0.0068,-0.01628 -0.0132,-0.03211 -0.02102,-0.04794 -0.0034,-0.0068 -0.0049,-0.01357 -0.0083,-0.0199 -0.0029,-0.005 -0.0068,-0.0095 -0.0098,-0.01447 -0.0078,-0.01357 -0.01662,-0.02668 -0.02542,-0.04025 -0.01027,-0.01538 -0.02102,-0.0303 -0.03227,-0.04477 -0.0083,-0.01085 -0.01662,-0.02171 -0.02542,-0.03166 -0.0098,-0.01131 -0.02053,-0.02126 -0.03129,-0.03166 -0.0132,-0.01311 -0.0264,-0.02532 -0.04058,-0.03754 -0.01124,-0.0099 -0.02249,-0.0199 -0.03471,-0.0294 -0.01076,-0.0081 -0.02298,-0.01583 -0.03422,-0.02352 -0.01564,-0.01085 -0.03178,-0.02035 -0.0484,-0.02985 -0.01467,-0.0081 -0.02885,-0.01673 -0.044,-0.02397 -0.0054,-0.0027 -0.0098,-0.0063 -0.01516,-0.009 L 22.763644,9.0107681 V 4.8809646 L 24.545156,5.5810233 22,0 19.454356,5.5814755 21.235867,4.8814168 V 9.0112203 L 9.4384889,14.467427 c -0.00489,0.0023 -0.00929,0.0059 -0.014178,0.0081 -0.015644,0.0077 -0.0308,0.01628 -0.045955,0.02487 -0.016133,0.0095 -0.031778,0.01899 -0.047422,0.0294 -0.011244,0.0077 -0.022978,0.01492 -0.033733,0.02306 -0.012711,0.0095 -0.023956,0.0199 -0.035689,0.0303 -0.013689,0.01176 -0.026889,0.02397 -0.040089,0.03708 -0.010755,0.0104 -0.021511,0.02035 -0.031289,0.03166 -0.00929,0.0104 -0.017111,0.02126 -0.025422,0.03211 -0.011733,0.01447 -0.022,0.0294 -0.032756,0.04477 -0.0088,0.01311 -0.0176,0.02623 -0.025422,0.04025 -0.00293,0.005 -0.00684,0.009 -0.00978,0.01447 -0.00342,0.0063 -0.00489,0.01312 -0.00782,0.01945 -0.00782,0.01583 -0.015156,0.03211 -0.021511,0.04884 -0.00587,0.01492 -0.011733,0.02985 -0.017111,0.04568 -0.0044,0.01357 -0.00831,0.02668 -0.011733,0.04025 -0.00391,0.01492 -0.00684,0.02985 -0.00929,0.04477 -0.00293,0.01628 -0.00538,0.03256 -0.00733,0.04884 -0.00147,0.01583 -0.00293,0.03166 -0.00342,0.04794 0,0.0072 -0.00244,0.01357 -0.00244,0.0208 V 30.206084 L 4.378,32.351032 4.2582222,30.563802 0,35.165286 6.5354667,34.775007 5.0619556,33.614122 9.7807111,31.432091 21.658756,36.925834 c 0.0098,0.0045 0.02053,0.0081 0.0308,0.01176 0.0088,0.0036 0.0176,0.0072 0.02689,0.01085 0.04009,0.01492 0.08067,0.02668 0.122223,0.03527 0.0073,0.0014 0.01516,0.0023 0.02249,0.0032 0.04595,0.0081 0.09289,0.01311 0.139333,0.01311 0.04644,0 0.09338,-0.005 0.139333,-0.01311 0.0073,-0.0014 0.01516,-0.0023 0.02249,-0.0032 0.04156,-0.0086 0.08213,-0.02035 0.122222,-0.03527 0.0093,-0.0032 0.0176,-0.0072 0.02689,-0.01085 0.01027,-0.0041 0.02053,-0.0072 0.0308,-0.01176 l 11.878045,-5.493743 4.718755,2.182031 -1.474,1.160885 z M 22.594595,21.195028 33.297297,16.323529 V 29.382353 L 22.594595,24.510409 Z m 9.513513,-5.959734 -9.513513,4.352941 v -8.705882 z m -10.702703,4.352941 -9.513513,-4.352941 9.513513,-4.352941 z m -10.702702,-3.264706 10.702702,4.871499 v 3.315381 l -10.702702,4.871944 z m 10.702702,9.794118 v 8.705882 l -9.513513,-4.352941 z m 1.18919,8.705882 v -8.705882 l 9.513513,4.352941 z" />
    </g>
  </g>
</svg>
