<svg id="Layer_1" data-name="Layer 1" xmlns="http://www.w3.org/2000/svg" viewBox="0 0 24 38.19" transform='translate(0, -3)'>
    <polygon stroke='none' points="20.14 27.72 14.69 27.72 14.69 28.72 21.14 28.72 21.14 22.32 20.14 22.32 20.14 27.72" />
    <polygon stroke='none' points="21.14 12.46 14.69 12.46 14.69 13.46 20.14 13.46 20.14 18.98 21.14 18.98 21.14 12.46" />
    <polygon stroke='none' points="5.88 13.46 11.34 13.46 11.34 12.46 4.88 12.46 4.88 18.98 5.88 18.98 5.88 13.46" />
    <polygon stroke='none' points="4.88 22.32 4.88 28.72 11.34 28.72 11.34 27.72 5.88 27.72 5.88 22.32 4.88 22.32" />
    <line stroke-miterlimit='10' fill='none' x1="20.67" y1="13.02" x2="5.34" y2="28.29" />
    <line stroke-miterlimit='10' fill='none' x1="5.29" y1="12.87" x2="20.73" y2="28.29" />
</svg>