<?xml version="1.0" encoding="UTF-8"?>
<svg xmlns:dc="http://purl.org/dc/elements/1.1/" xmlns:cc="http://creativecommons.org/ns#" xmlns:rdf="http://www.w3.org/1999/02/22-rdf-syntax-ns#" xmlns:svg="http://www.w3.org/2000/svg" xmlns="http://www.w3.org/2000/svg" xmlns:sodipodi="http://sodipodi.sourceforge.net/DTD/sodipodi-0.dtd" xmlns:inkscape="http://www.inkscape.org/namespaces/inkscape" version="1.1" x="0px" y="0px" viewBox="0 0 100 100"><g transform="translate(0,-952.36218)"><path style="text-indent:0;text-transform:none;direction:ltr;block-progression:tb;baseline-shift:baseline;enable-background:accumulate;" d="m 26.156413,962.38969 c -2.14955,0.0461 -4.24201,0.65026 -6.03125,1.71875 -3.57847,2.13698 -6.021809,6.1516 -6.124999,10.8125 a 4.0004,4.0004 0 0 0 0,0.0937 l 0,54.68746 a 4.0004,4.0004 0 0 0 0,0.094 c 0.10319,4.6605 2.550679,8.6634 6.124999,10.8122 3.57432,2.1489 8.32568,2.4002 12.4375,0.1563 a 4.0004,4.0004 0 0 0 0.125,-0.031 l 47,-27.4688 a 4.0004,4.0004 0 0 0 0.0312,0 c 3.71855,-2.1736 6.28125,-6.2498 6.28125,-10.9062 0,-4.65651 -2.5627,-8.73266 -6.28125,-10.90626 a 4.0004,4.0004 0 0 0 -0.0312,0 l -47.03125,-27.4062 a 4.0004,4.0004 0 0 0 -0.0937,-0.0625 c -2.05292,-1.12034 -4.2567,-1.63987 -6.40625,-1.59375 z m 0.15625,7.96875 c 0.7515,-0.0196 1.56632,0.18082 2.4375,0.65625 l 46.90625,27.34375 c 1.40425,0.82085 2.34375,2.22666 2.34375,3.99996 0,1.7732 -0.9395,3.1792 -2.34375,4 l -46.90625,27.4063 -0.0312,0 c -1.72308,0.9284 -3.21391,0.7544 -4.46875,0 -1.23897,-0.7449 -2.17269,-2.0824 -2.25,-4.0625 l 0,-54.68751 c 0.0774,-1.97855 0.98413,-3.29397 2.21875,-4.03125 0.62914,-0.37571 1.34225,-0.60538 2.09375,-0.625 z" fill-opacity="1" stroke="none" marker="none" visibility="visible" display="inline" overflow="visible"></path></g></svg>