<svg id="Layer_1" data-name="Layer 1" xmlns="http://www.w3.org/2000/svg" viewBox="0 0 24 38.19"><defs><style>.cls-1{fill:none;stroke:#000;stroke-miterlimit:10;}</style></defs><title>Group 2</title><line class="cls-1" x1="9.94" y1="22.37" x2="4.5" y2="27.73"/><line class="cls-1" x1="4.45" y1="12.31" x2="9.59" y2="17.42"/><line class="cls-1" x1="14.52" y1="17.81" x2="19.96" y2="12.44"/><line class="cls-1" x1="19.82" y1="27.66" x2="14.68" y2="22.55"/><polygon points="14.94 22.77 20.39 22.77 20.39 21.77 13.94 21.77 13.94 28.16 14.94 28.16 14.94 22.77"/><polygon points="13.94 18.42 20.39 18.42 20.39 17.42 14.94 17.42 14.94 11.9 13.94 11.9 13.94 18.42"/><polygon points="9.59 17.42 4.14 17.42 4.14 18.42 10.59 18.42 10.59 11.9 9.59 11.9 9.59 17.42"/><polygon points="10.59 28.16 10.59 21.77 4.14 21.77 4.14 22.77 9.59 22.77 9.59 28.16 10.59 28.16"/></svg>