<svg xmlns="http://www.w3.org/2000/svg" width="24" height="24" viewBox="0 0 24 24">
  <g fill-rule="nonzero">
    <path d="M11.373 12.22c.371-.298.901-.294 1.267.012l6 5c.424.354.481.984.128 1.408-.198.238-.482.36-.769.36-.225 0-.452-.076-.639-.232l-5.37-4.475-5.363 4.314c-.43.347-1.059.279-1.406-.152-.347-.43-.278-1.06.152-1.406zm0-7c.371-.298.901-.295 1.267.012l6 5c.425.353.482.983.128 1.408-.198.237-.482.36-.768.36-.226 0-.453-.077-.64-.232l-5.371-4.476-5.362 4.315c-.43.346-1.059.278-1.406-.152-.346-.43-.278-1.06.152-1.407z" transform="translate(-176 -769) translate(126 763) translate(50 6)"/>
  </g>
</svg>